<svg width="80" height="80" viewBox="0 0 80 80" fill="none" xmlns="http://www.w3.org/2000/svg">
<path d="M40 0C17.9087 0 0 17.9087 0 40C0 62.0913 17.9087 80 40 80C62.0913 80 80 62.0913 80 40C80 17.9087 62.0913 0 40 0ZM56.2878 47.745H53.6652V51.8278H48.8971V47.745H40.7015V43.4834L50.4166 31.0262H53.6652V43.4536H56.2878V47.745ZM69.1559 47.4956C68.6454 48.0061 67.9763 48.2614 67.3074 48.2614C66.6383 48.2614 65.9691 48.0063 65.4586 47.4956C64.5816 46.6186 59.3351 41.372 58.156 40.1929C57.135 39.1719 57.135 37.5167 58.156 36.4957C59.1768 35.4747 60.8322 35.4747 61.8532 36.4957L64.4702 39.1127C64.0012 26.0193 53.2054 15.512 40 15.512C26.4973 15.512 15.512 26.4973 15.512 40C15.512 53.5027 26.4973 64.488 40 64.488C40.7219 64.488 41.3755 64.7807 41.8487 65.2537C42.3217 65.7269 42.6144 66.3805 42.6144 67.1024C42.6144 68.5462 41.4438 69.7168 40 69.7168C23.6141 69.7168 10.2832 56.3859 10.2832 40C10.2832 23.6141 23.6141 10.2832 40 10.2832C56.2341 10.2832 69.4672 23.3689 69.711 39.546L72.7615 36.4957C73.7823 35.4747 75.4377 35.4747 76.4587 36.4957C77.4797 37.5167 77.4797 39.1719 76.4587 40.1929L69.1559 47.4956ZM32.7746 35.3773C31.8543 34.5957 29.9691 34.7749 28.9004 35.4815C28.2843 35.889 27.6882 36.4202 27.1123 37.0759L24.0725 33.5594C25.2035 32.286 28.1863 30.7282 31.9104 30.7282C34.0561 30.7282 35.6999 31.1953 36.8425 32.129C37.9848 33.063 38.5562 34.3245 38.5562 35.9137C38.5562 40.544 32.7925 41.5163 30.7779 43.7516H38.884V48.043H24.0427C24.0427 42.7017 26.2057 41.5533 30.8525 39.043C32.9814 37.8944 33.3706 37.3715 33.3706 36.7184C33.3706 36.1624 33.1718 35.7154 32.7746 35.3773Z" fill="#FFC244"/>
<path d="M49.4632 43.4536V38.1786L45.4102 43.4536H49.4632Z" fill="#FFC244"/>
</svg>
