<svg width="390" height="433" viewBox="0 0 390 433" fill="none" xmlns="http://www.w3.org/2000/svg">
<path d="M287.673 355.079H122.921V275.277H287.673V355.079ZM126.782 351.218H283.168V279.139H126.782V351.218Z" fill="#FFE3A9"/>
<path d="M302.475 339.634H285.743V335.129H298.614V263.693H141.584V277.208H137.723V259.832H302.475V339.634Z" fill="#FFE3A9"/>
<path d="M317.278 324.188H300.545V319.683H313.416V248.247H156.386V261.762H152.525V243.742H317.278V324.188Z" fill="#FFE3A9"/>
<path d="M332.079 308.742H315.347V304.237H328.218V232.802H171.188V246.317H167.327V228.297H332.079V308.742Z" fill="#FFE3A9"/>
<path d="M205.297 334.485C197.574 334.485 191.139 326.118 191.139 315.821C191.139 305.524 197.574 297.158 205.297 297.158C213.02 297.158 219.456 305.524 219.456 315.821C219.456 326.118 213.02 334.485 205.297 334.485ZM205.297 301.663C199.505 301.663 195 308.098 195 315.821C195 323.544 199.505 329.98 205.297 329.98C211.089 329.98 215.594 323.544 215.594 315.821C215.594 308.098 211.089 301.663 205.297 301.663Z" fill="#FFE3A9"/>
<path d="M258.07 353.148H254.208C254.208 335.772 268.367 322.257 285.743 322.257V326.118C270.297 326.118 258.07 338.346 258.07 353.148Z" fill="#FFE3A9"/>
<path d="M156.386 353.148H152.525C152.525 338.346 140.297 326.118 124.852 326.118V322.257C142.228 322.257 156.386 335.772 156.386 353.148Z" fill="#FFE3A9"/>
<path d="M285.743 308.099C268.367 308.099 254.208 293.94 254.208 277.208H258.07C258.07 292.01 270.297 304.237 285.743 304.237V308.099Z" fill="#FFE3A9"/>
<path d="M124.852 308.099V304.237C140.297 304.237 152.525 292.01 152.525 277.208H156.386C156.386 293.94 142.228 308.099 124.852 308.099Z" fill="#FFE3A9"/>
<path d="M172.475 313.247H155.743V317.108H172.475V313.247Z" fill="#FFE3A9"/>
<path d="M254.852 313.247H238.119V317.108H254.852V313.247Z" fill="#FFE3A9"/>
<path d="M81.0891 310.029C64.3564 310.029 50.8416 302.95 50.8416 293.94C50.8416 284.93 63.7129 277.851 81.0891 277.851C97.8218 277.851 111.337 284.93 111.337 293.94C111.337 302.95 98.4653 310.029 81.0891 310.029ZM81.0891 281.712C65.6435 281.712 55.3465 288.148 55.3465 293.94C55.3465 299.732 65.6435 306.168 81.0891 306.168C96.5347 306.168 106.832 299.732 106.832 293.94C106.832 288.148 96.5347 281.712 81.0891 281.712Z" fill="#FFE3A9"/>
<path d="M81.0891 324.188C64.3564 324.188 50.8416 317.109 50.8416 308.099C50.8416 304.881 52.1287 302.307 55.3465 299.732L57.9208 302.95C56.6336 304.237 54.703 306.168 54.703 308.742C54.703 314.534 65 320.97 80.4455 320.97C95.8911 320.97 106.188 314.534 106.188 308.742C106.188 306.168 104.257 304.237 102.97 302.95L105.545 299.732C108.762 302.307 110.05 305.524 110.05 308.099C111.337 317.109 98.4653 324.188 81.0891 324.188Z" fill="#FFE3A9"/>
<path d="M81.0891 338.346C64.3564 338.346 50.8416 331.267 50.8416 322.257C50.8416 319.039 52.1287 316.465 55.3465 313.89L57.9208 317.108C56.6336 318.395 54.703 320.326 54.703 322.9C54.703 328.692 65 335.128 80.4455 335.128C95.8911 335.128 106.188 328.692 106.188 322.9C106.188 320.326 104.257 318.395 102.97 317.108L105.545 313.89C108.762 316.465 110.05 319.682 110.05 322.257C111.337 331.267 98.4653 338.346 81.0891 338.346Z" fill="#FFE3A9"/>
<path d="M81.0891 352.505C64.3564 352.505 50.8416 345.425 50.8416 336.416C50.8416 333.198 52.1287 330.623 55.3465 328.049L57.9208 331.267C56.6336 332.554 54.703 334.485 54.703 337.059C54.703 342.851 65 349.287 80.4455 349.287C95.8911 349.287 106.188 342.851 106.188 337.059C106.188 334.485 104.257 332.554 102.97 331.267L105.545 328.049C108.762 330.623 110.05 333.841 110.05 336.416C111.337 345.425 98.4653 352.505 81.0891 352.505Z" fill="#FFE3A9"/>
<path d="M85.5941 292.009H78.5149V295.87H85.5941V292.009Z" fill="#FFE3A9"/>
<path d="M309.555 153H305.693V217.356H309.555V153Z" fill="#FFE3A9"/>
<path d="M290.891 432.951C288.961 432.307 287.03 431.664 285.099 430.377L287.03 426.515C288.961 427.159 290.891 427.802 292.822 429.089L290.891 432.951Z" fill="#FFE3A9"/>
<path d="M273.515 425.228C269.654 423.297 266.436 421.366 263.218 418.792L265.792 414.931C269.01 416.862 272.228 419.436 276.089 421.366L273.515 425.228ZM253.564 411.069C250.347 408.495 247.129 405.921 244.555 402.703L247.772 399.485C250.347 402.06 253.564 405.277 256.782 407.208L253.564 411.069ZM235.545 393.693C232.97 390.475 230.396 387.258 227.822 384.04L231.04 381.465C233.614 384.683 235.545 387.901 238.119 391.119L235.545 393.693Z" fill="#FFE3A9"/>
<path d="M221.386 373.743C220.099 371.812 219.456 369.881 218.168 367.95L222.03 366.02C222.673 367.95 223.961 369.881 225.248 371.168L221.386 373.743Z" fill="#FFE3A9"/>
<path d="M235.545 223.148L232.327 220.574C233.614 218.643 234.901 217.356 236.188 215.426L239.406 218C238.119 219.93 236.832 221.218 235.545 223.148Z" fill="#FFE3A9"/>
<path d="M247.772 209.634L244.555 206.416C247.772 203.842 250.347 200.624 253.564 198.05L256.139 201.267C253.564 204.485 250.347 207.059 247.772 209.634ZM265.792 194.832L263.218 191.614C266.436 189.04 270.297 187.109 273.515 185.178L275.446 189.04C272.228 190.327 269.01 192.257 265.792 194.832Z" fill="#FFE3A9"/>
<path d="M286.386 183.247L285.099 179.386C287.03 178.742 288.961 177.455 290.891 176.812L292.178 180.673C290.248 181.96 288.317 182.604 286.386 183.247Z" fill="#FFE3A9"/>
<path d="M383.565 283.644H379.703V299.733H383.565V283.644Z" fill="#FFE3A9"/>
<path d="M390 288.793H373.911V292.654H390V288.793Z" fill="#FFE3A9"/>
<path d="M174.406 403.347H170.545V419.436H174.406V403.347Z" fill="#FFE3A9"/>
<path d="M180.198 409.139H164.109V413.001H180.198V409.139Z" fill="#FFE3A9"/>
<path d="M111.337 231.515H107.475V247.604H111.337V231.515Z" fill="#FFE3A9"/>
<path d="M117.129 236.663H101.04V240.525H117.129V236.663Z" fill="#FFE3A9"/>
<path d="M10.297 305.525H6.43567V321.614H10.297V305.525Z" fill="#FFE3A9"/>
<path d="M16.0891 310.673H0V314.535H16.0891V310.673Z" fill="#FFE3A9"/>
<path d="M346.941 412.792C339.218 412.792 332.139 406.357 332.139 397.99C332.139 390.268 338.574 383.188 346.941 383.188C354.663 383.188 361.743 389.624 361.743 397.99C361.099 406.357 354.663 412.792 346.941 412.792ZM346.941 387.693C341.149 387.693 336.644 392.198 336.644 397.99C336.644 403.783 341.149 408.288 346.941 408.288C352.733 408.288 357.238 403.783 357.238 397.99C357.238 392.842 352.733 387.693 346.941 387.693Z" fill="#FFE3A9"/>
<path d="M348.228 410.861H344.366V418.584H348.228V410.861Z" fill="#FFE3A9"/>
<path d="M348.228 378.04H344.366V385.762H348.228V378.04Z" fill="#FFE3A9"/>
<path d="M356.475 405.79L353.744 408.52L359.203 413.982L361.935 411.253L356.475 405.79Z" fill="#FFE3A9"/>
<path d="M334.127 382.789L331.396 385.519L336.857 390.98L339.588 388.25L334.127 382.789Z" fill="#FFE3A9"/>
<path d="M366.891 396.06H359.168V399.921H366.891V396.06Z" fill="#FFE3A9"/>
<path d="M334.069 396.06H326.347V399.921H334.069V396.06Z" fill="#FFE3A9"/>
<path d="M359.513 382.195L354.052 387.656L356.782 390.386L362.243 384.925L359.513 382.195Z" fill="#FFE3A9"/>
<path d="M336.585 405.436L331.124 410.897L333.854 413.628L339.316 408.167L336.585 405.436Z" fill="#FFE3A9"/>
<path d="M316.693 391.555C308.97 391.555 301.891 385.119 301.891 376.753C301.891 369.03 308.327 361.951 316.693 361.951C324.416 361.951 331.495 368.386 331.495 376.753C330.852 385.119 324.416 391.555 316.693 391.555ZM316.693 366.456C310.901 366.456 306.396 370.961 306.396 376.753C306.396 382.545 310.901 387.05 316.693 387.05C322.485 387.05 326.99 382.545 326.99 376.753C326.99 370.961 321.842 366.456 316.693 366.456Z" fill="#FFE3A9"/>
<path d="M317.98 389.623H314.119V397.346H317.98V389.623Z" fill="#FFE3A9"/>
<path d="M317.98 356.802H314.119V364.525H317.98V356.802Z" fill="#FFE3A9"/>
<path d="M326.299 384.423L323.569 387.154L329.03 392.614L331.76 389.884L326.299 384.423Z" fill="#FFE3A9"/>
<path d="M303.053 361.482L300.323 364.213L305.784 369.673L308.514 366.942L303.053 361.482Z" fill="#FFE3A9"/>
<path d="M336.644 374.822H328.921V378.683H336.644V374.822Z" fill="#FFE3A9"/>
<path d="M303.822 374.822H296.099V378.683H303.822V374.822Z" fill="#FFE3A9"/>
<path d="M328.888 361.313L323.427 366.774L326.157 369.505L331.618 364.044L328.888 361.313Z" fill="#FFE3A9"/>
<path d="M306.374 384.108L300.914 389.568L303.644 392.299L309.105 386.838L306.374 384.108Z" fill="#FFE3A9"/>
<path d="M340.446 210.92C332.723 210.92 325.644 204.484 325.644 196.118C325.644 188.395 332.079 181.316 340.446 181.316C348.168 181.316 355.248 187.752 355.248 196.118C354.604 204.484 348.168 210.92 340.446 210.92ZM340.446 186.465C334.653 186.465 330.148 190.97 330.148 196.762C330.148 202.554 334.653 207.059 340.446 207.059C346.238 207.059 350.743 202.554 350.743 196.762C350.743 190.97 346.238 186.465 340.446 186.465Z" fill="#FFE3A9"/>
<path d="M341.733 208.99H337.871V216.713H341.733V208.99Z" fill="#FFE3A9"/>
<path d="M341.733 176.812H337.871V184.534H341.733V176.812Z" fill="#FFE3A9"/>
<path d="M350.264 204.413L347.534 207.144L352.995 212.604L355.725 209.874L350.264 204.413Z" fill="#FFE3A9"/>
<path d="M327.469 180.991L324.738 183.722L330.199 189.183L332.929 186.452L327.469 180.991Z" fill="#FFE3A9"/>
<path d="M360.396 194.832H352.673V198.693H360.396V194.832Z" fill="#FFE3A9"/>
<path d="M328.218 194.832H320.495V198.693H328.218V194.832Z" fill="#FFE3A9"/>
<path d="M353.356 180.839L347.894 186.3L350.625 189.031L356.086 183.57L353.356 180.839Z" fill="#FFE3A9"/>
<path d="M329.932 203.637L324.47 209.098L327.2 211.829L332.662 206.368L329.932 203.637Z" fill="#FFE3A9"/>
<path d="M125 179H141.964L234.389 0H218.01L125 179Z" fill="white"/>
<path d="M154.833 179H171.212L263.637 0H247.258L154.833 179Z" fill="white"/>
</svg>
