<svg width="80" height="80" viewBox="0 0 80 80" fill="none" xmlns="http://www.w3.org/2000/svg">
<g clip-path="url(#clip0_7:1082)">
<path d="M1.09057 40.1037C0.230595 40.4204 -0.21267 41.3737 0.1006 42.2369L1.14728 45.1168L9.11685 37.1471L1.09057 40.1037Z" fill="#FFC244"/>
<path d="M8.63358 65.7028L13.4334 78.9024C13.5834 79.3191 13.8967 79.6591 14.2967 79.8423C14.5199 79.9456 14.7599 79.9991 14.9999 79.9991C15.1966 79.9991 15.3899 79.9658 15.5766 79.8958L20.8731 77.9426L8.63358 65.7028Z" fill="#FFC244"/>
<path d="M79.8978 54.4332L74.4047 39.3305L61.2219 52.5133L67.755 50.1067C68.6116 49.78 69.5782 50.2267 69.8949 51.0933C70.2149 51.9566 69.7716 52.9166 68.9082 53.2333L60.6085 56.2932C60.4185 56.3632 60.2252 56.3964 60.0318 56.3964C59.3551 56.3964 58.7151 55.9797 58.4686 55.3065C58.4653 55.2965 58.4686 55.2865 58.4653 55.2765L44.4958 69.246L78.9078 56.5664C79.7711 56.2499 80.2144 55.2965 79.8978 54.4332Z" fill="#FFC244"/>
<path d="M79.5112 27.1542L52.8454 0.488429C52.1954 -0.161548 51.1387 -0.161548 50.4887 0.488429L0.490474 50.4867C-0.159504 51.1366 -0.159504 52.1933 0.490474 52.8433L27.1563 79.5091C27.4795 79.8358 27.9062 79.9991 28.3329 79.9991C28.7596 79.9991 29.1862 79.8358 29.5129 79.5124L79.5112 29.5141C80.1611 28.8609 80.1611 27.8075 79.5112 27.1542ZM19.5133 46.1803L12.8468 52.8466C12.5201 53.1699 12.0935 53.3333 11.6668 53.3333C11.2401 53.3333 10.8136 53.17 10.4868 52.8466C9.83687 52.1966 9.83687 51.1399 10.4868 50.4899L17.1533 43.8235C17.8033 43.1735 18.86 43.1735 19.51 43.8235C20.1599 44.4736 20.1632 45.5268 19.5133 46.1803ZM48.2955 48.2967C47.1156 49.4767 45.5123 50.0434 43.729 50.0434C40.7824 50.0434 37.3392 48.5002 34.4593 45.6168C32.3526 43.5102 30.8727 40.9903 30.2962 38.5238C29.6562 35.7739 30.1829 33.3807 31.7794 31.7808C33.376 30.1808 35.7692 29.6541 38.5224 30.2975C40.9891 30.8742 43.509 32.3507 45.6155 34.4607C50.2455 39.0871 51.4254 45.1669 48.2955 48.2967ZM69.5115 29.5141L62.845 36.1806C62.5183 36.5039 62.0918 36.6673 61.6651 36.6673C61.2384 36.6673 60.8118 36.504 60.4851 36.1806C59.8351 35.5306 59.8351 34.474 60.4851 33.824L67.1516 27.1575C67.8016 26.5075 68.8583 26.5075 69.5082 27.1575C70.1582 27.8075 70.1615 28.8609 69.5115 29.5141Z" fill="#FFC244"/>
</g>
<defs>
<clipPath id="clip0_7:1082">
<rect width="80" height="80" fill="white"/>
</clipPath>
</defs>
</svg>
