<svg width="1199" height="191" viewBox="0 0 1199 191" fill="none" xmlns="http://www.w3.org/2000/svg">
<path d="M0 191V97.2429L2.6507 98.7003L9.27745 95.7855L20.322 85.0982L30.4831 77.3256H38.4352L44.1783 67.6098L50.3633 48.1783L57.4318 26.8036L63.6168 9.31525L69.36 3H73.336L81.2881 16.1163L88.3567 39.9199L102.052 72.4677L108.679 75.3824L114.422 89.9561L125.466 135.134L133.86 170.111L140.487 178.37L148.439 175.941L170.528 161.853L178.039 159.91L184.665 155.537L195.71 136.592L207.638 122.018L218.683 118.618L238.563 95.7855L246.957 91.4134L283.625 95.7855L290.252 89.9561L299.971 67.6098L309.69 47.6925L317.642 41.3773L324.269 47.6925L333.105 70.0388L344.149 101.129L349.892 109.388H358.286L381.701 99.6718H391.42L399.372 111.817L412.184 141.935L420.578 151.651H425.879L431.622 138.049L439.133 107.93L446.643 70.0388L453.711 47.6925L459.013 41.3773L466.523 48.6641L477.126 72.4677L490.38 93.8424L503.633 99.6718L526.164 115.703H535.883L552.671 106.473L565.041 102.101L581.829 109.388L599.5 118.132V191H0Z" fill="url(#paint0_linear_126:166)"/>
<path fill-rule="evenodd" clip-rule="evenodd" d="M41.5426 75.772C39.9437 77.9679 37.8585 79.9078 35.2647 79.9078C32.767 79.9078 30.2082 80.9944 27.4574 82.8885C24.6991 84.7876 21.9595 87.3447 19.0655 90.0527L18.9959 90.1178C16.1801 92.7526 13.2129 95.5291 10.1556 97.6342C7.06571 99.7617 3.6736 101.356 0 101.356V96.5174C2.49772 96.5174 5.05653 95.4309 7.80734 93.5368C10.5656 91.6376 13.3052 89.0806 16.1992 86.3726L16.2688 86.3075C19.0846 83.6727 22.0519 80.8961 25.1091 78.7911C28.199 76.6636 31.5911 75.0691 35.2647 75.0691C35.7566 75.0691 36.7019 74.6631 38.0922 72.7537C39.4174 70.9338 40.8024 68.2144 42.2369 64.7573C45.0994 57.8592 47.926 48.611 50.8039 39.1861L50.8336 39.0887C53.6767 29.7777 56.5707 20.2997 59.5387 13.1473C61.0245 9.56665 62.5874 6.42125 64.2515 4.13583C65.8504 1.93991 67.9357 0 70.5294 0C73.0768 0 75.156 1.82121 76.7739 3.93745C78.4459 6.12438 80.0143 9.13162 81.5027 12.5477C84.4743 19.3681 87.3708 28.4021 90.2122 37.2647L90.2442 37.3644C93.123 46.3435 95.9465 55.1409 98.8044 61.7001C100.236 64.9866 101.616 67.5649 102.933 69.2878C104.304 71.0814 105.256 71.4944 105.794 71.4944C107.311 71.4944 108.583 72.2967 109.577 73.2915C110.57 74.285 111.454 75.6333 112.258 77.1576C113.869 80.2126 115.399 84.4526 116.872 89.3549C119.82 99.1663 122.702 112.199 125.554 125.097L125.572 125.177C128.444 138.17 131.287 151.02 134.174 160.626C135.621 165.442 137.039 169.301 138.417 171.916C139.108 173.226 139.728 174.105 140.253 174.63C140.776 175.154 141.033 175.161 141.059 175.161C143.655 175.161 146.268 174.221 149.017 172.644C151.779 171.059 154.52 168.927 157.412 166.672L157.478 166.621C160.297 164.423 163.264 162.109 166.318 160.356C169.411 158.582 172.748 157.288 176.324 157.288C178.36 157.288 180.76 155.61 183.638 151.977C186.431 148.452 189.204 143.703 192.096 138.743L192.157 138.639C194.977 133.801 197.913 128.764 200.94 124.943C203.902 121.204 207.453 117.966 211.588 117.966C213.893 117.966 216.367 116.619 219.152 114.062C221.918 111.523 224.667 108.101 227.562 104.489L227.632 104.403C230.447 100.891 233.404 97.2013 236.454 94.401C239.509 91.5964 242.987 89.368 246.853 89.368C253.181 89.368 259.041 90.282 264.733 91.1697L264.796 91.1795C270.545 92.0761 276.126 92.9427 282.118 92.9427C282.901 92.9427 283.912 92.5175 285.198 91.2553C286.477 90.0013 287.824 88.1163 289.237 85.6844C292.065 80.8172 294.866 74.2739 297.751 67.5252L297.797 67.4178C300.628 60.7949 303.542 53.9789 306.539 48.8201C308.047 46.2251 309.647 43.9209 311.358 42.2425C313.06 40.5723 315.08 39.3219 317.382 39.3219C319.882 39.3219 321.954 41.0256 323.59 43.0593C325.27 45.1468 326.845 48.0153 328.336 51.2671C331.312 57.7554 334.211 66.3458 337.051 74.7601L337.085 74.8618C339.965 83.395 342.785 91.7414 345.638 97.9619C347.067 101.078 348.44 103.515 349.75 105.142C351.102 106.823 352.061 107.242 352.647 107.242C358.29 107.242 363.602 104.792 369.413 102.074L369.603 101.985C375.201 99.3653 381.287 96.5174 387.912 96.5174C390.214 96.5174 392.234 97.7679 393.937 99.438C395.647 101.116 397.248 103.421 398.755 106.016C401.752 111.174 404.666 117.99 407.497 124.613L407.543 124.721C410.428 131.469 413.229 138.013 416.057 142.88C417.47 145.312 418.817 147.197 420.096 148.451C421.382 149.713 422.393 150.138 423.176 150.138C423.179 150.138 423.189 150.138 423.212 150.132C423.236 150.125 423.278 150.11 423.341 150.076C423.471 150.005 423.669 149.86 423.929 149.582C424.462 149.011 425.091 148.058 425.788 146.645C427.176 143.83 428.599 139.685 430.048 134.53C432.939 124.249 435.784 110.499 438.656 96.6145L438.672 96.5375C441.525 82.7429 444.405 68.8209 447.35 58.344C448.822 53.1099 450.346 48.5972 451.947 45.3523C452.744 43.7352 453.621 42.3074 454.605 41.2546C455.584 40.2072 456.872 39.3219 458.441 39.3219C460.743 39.3219 462.763 40.5723 464.466 42.2425C466.177 43.9209 467.777 46.2251 469.285 48.8201C472.281 53.9788 475.195 60.7945 478.026 67.4171L478.072 67.5252C480.957 74.2739 483.759 80.8172 486.586 85.6844C487.999 88.1163 489.347 90.0013 490.625 91.2553C491.912 92.5175 492.922 92.9427 493.706 92.9427C497.379 92.9427 500.772 94.5372 503.861 96.6647C506.918 98.7695 509.885 101.546 512.701 104.18L512.771 104.246C515.665 106.954 518.405 109.511 521.163 111.41C523.914 113.304 526.473 114.391 528.971 114.391C534.45 114.391 539.655 111.212 545.511 107.558L545.768 107.398C551.306 103.942 557.476 100.092 564.235 100.092C570.994 100.092 577.164 103.942 582.703 107.398L582.959 107.558C588.816 111.212 594.021 114.391 599.5 114.391V119.23C592.741 119.23 586.571 115.38 581.032 111.924L580.776 111.764C574.919 108.11 569.714 104.931 564.235 104.931C558.756 104.931 553.551 108.11 547.695 111.764L547.438 111.924C541.899 115.38 535.729 119.23 528.971 119.23C525.297 119.23 521.905 117.635 518.815 115.508C515.758 113.403 512.791 110.626 509.975 107.991L509.905 107.926C507.011 105.218 504.271 102.661 501.513 100.762C498.762 98.868 496.204 97.7814 493.706 97.7814C491.404 97.7814 489.384 96.531 487.681 94.8608C485.97 93.1824 484.37 90.8783 482.862 88.2833C479.866 83.1246 476.952 76.309 474.121 69.6863L474.075 69.5782C471.19 62.8295 468.388 56.2861 465.561 51.419C464.148 48.987 462.8 47.1021 461.522 45.8481C460.235 44.5859 459.225 44.1606 458.441 44.1606C458.44 44.1606 458.437 44.1607 458.431 44.1615C458.425 44.1623 458.417 44.1639 458.405 44.167C458.382 44.1736 458.339 44.1886 458.277 44.2229C458.147 44.2941 457.948 44.439 457.689 44.717C457.155 45.2875 456.527 46.2405 455.83 47.6535C454.441 50.4689 453.018 54.6137 451.569 59.7687C448.679 70.0503 445.833 83.8001 442.961 97.6844L442.945 97.7628C440.092 111.557 437.212 125.478 434.267 135.955C432.796 141.189 431.271 145.702 429.671 148.947C428.873 150.564 427.997 151.991 427.013 153.044C426.034 154.092 424.746 154.977 423.176 154.977C420.874 154.977 418.854 153.727 417.152 152.056C415.441 150.378 413.841 148.074 412.333 145.479C409.336 140.32 406.422 133.504 403.591 126.881L403.545 126.774C400.66 120.025 397.859 113.482 395.031 108.615C393.619 106.183 392.271 104.298 390.992 103.044C389.706 101.781 388.695 101.356 387.912 101.356C382.269 101.356 376.957 103.805 371.146 106.524L370.956 106.613C365.358 109.232 359.272 112.08 352.647 112.08C350.147 112.08 348.076 110.377 346.439 108.343C344.759 106.255 343.185 103.387 341.693 100.135C338.718 93.6468 335.818 85.0564 332.979 76.6421L332.944 76.5405C330.065 68.0073 327.245 59.6609 324.392 53.4404C322.963 50.3247 321.589 47.8869 320.28 46.2601C318.927 44.5795 317.968 44.1606 317.382 44.1606C316.599 44.1606 315.588 44.5859 314.302 45.8481C313.023 47.1021 311.676 48.987 310.263 51.419C307.435 56.2861 304.634 62.8295 301.749 69.5782L301.703 69.6858C298.872 76.3086 295.958 83.1245 292.961 88.2833C291.453 90.8783 289.853 93.1824 288.142 94.8608C286.44 96.531 284.42 97.7814 282.118 97.7814C275.79 97.7814 269.929 96.8675 264.237 95.9797L264.174 95.9699C258.425 95.0734 252.845 94.2067 246.853 94.2067C244.548 94.2067 242.075 95.553 239.289 98.1105C236.523 100.649 233.774 104.071 230.879 107.683L230.81 107.769C227.995 111.281 225.037 114.971 221.987 117.771C218.932 120.576 215.454 122.804 211.588 122.804C209.552 122.804 207.152 124.482 204.273 128.115C201.481 131.64 198.707 136.389 195.816 141.349L195.755 141.453C192.935 146.291 189.998 151.328 186.972 155.149C184.009 158.889 180.459 162.126 176.324 162.126C173.728 162.126 171.114 163.066 168.366 164.643C165.603 166.228 162.863 168.36 159.971 170.615L159.904 170.667C157.086 172.865 154.118 175.179 151.064 176.931C147.972 178.706 144.634 180 141.059 180C139.542 180 138.27 179.198 137.276 178.203C136.283 177.209 135.399 175.861 134.595 174.337C132.984 171.282 131.454 167.042 129.981 162.14C127.033 152.328 124.151 139.296 121.299 126.398L121.281 126.317C118.409 113.325 115.565 100.474 112.679 90.8685C111.232 86.052 109.814 82.1931 108.436 79.5788C107.745 78.2684 107.125 77.3895 106.6 76.8644C106.077 76.3408 105.82 76.3331 105.794 76.3331C103.247 76.3331 101.168 74.5119 99.5496 72.3957C97.8776 70.2087 96.3092 67.2015 94.8208 63.7854C91.8492 56.965 88.9527 47.931 86.1113 39.0684L86.0793 38.9687C83.2005 29.9896 80.377 21.1923 77.5191 14.633C76.0871 11.3465 74.7076 8.76823 73.3903 7.04531C72.0191 5.2517 71.0677 4.83871 70.5294 4.83871C70.0375 4.83871 69.0922 5.24471 67.7019 7.15413C66.3767 8.97405 64.9917 11.6934 63.5572 15.1506C60.6948 22.0486 57.8681 31.2968 54.9902 40.7218L54.9605 40.8192C52.1174 50.1302 49.2234 59.6081 46.2554 66.7606C44.7696 70.3412 43.2067 73.4866 41.5426 75.772Z" fill="#0E72A5"/>
<path d="M1199 191V97.2429L1196.35 98.7003L1189.72 95.7855L1178.68 85.0982L1168.52 77.3256H1160.56L1154.82 67.6098L1148.64 48.1783L1141.57 26.8036L1135.38 9.31525L1129.64 3H1125.66L1117.71 16.1163L1110.64 39.9199L1096.95 72.4677L1090.32 75.3824L1084.58 89.9561L1073.53 135.134L1065.14 170.111L1058.51 178.37L1050.56 175.941L1028.47 161.853L1020.96 159.91L1014.33 155.537L1003.29 136.592L991.362 122.018L980.317 118.618L960.437 95.7855L952.043 91.4134L915.375 95.7855L908.748 89.9561L899.029 67.6098L889.31 47.6925L881.358 41.3773L874.731 47.6925L865.895 70.0388L854.851 101.129L849.108 109.388H840.714L817.299 99.6718H807.58L799.628 111.817L786.816 141.935L778.422 151.651H773.121L767.378 138.049L759.867 107.93L752.357 70.0388L745.289 47.6925L739.987 41.3773L732.477 48.6641L721.874 72.4677L708.62 93.8424L695.367 99.6718L672.836 115.703H663.117L646.329 106.473L633.959 102.101L617.171 109.388L599.5 118.132V191H1199Z" fill="url(#paint1_linear_126:166)"/>
<path fill-rule="evenodd" clip-rule="evenodd" d="M1157.46 75.772C1159.06 77.9679 1161.14 79.9078 1163.74 79.9078C1166.23 79.9078 1168.79 80.9944 1171.54 82.8885C1174.3 84.7876 1177.04 87.3447 1179.93 90.0527L1180 90.1178C1182.82 92.7526 1185.79 95.5291 1188.84 97.6342C1191.93 99.7617 1195.33 101.356 1199 101.356V96.5174C1196.5 96.5174 1193.94 95.4309 1191.19 93.5368C1188.43 91.6376 1185.69 89.0806 1182.8 86.3726L1182.73 86.3075C1179.92 83.6727 1176.95 80.8961 1173.89 78.7911C1170.8 76.6636 1167.41 75.0691 1163.74 75.0691C1163.24 75.0691 1162.3 74.6631 1160.91 72.7537C1159.58 70.9338 1158.2 68.2144 1156.76 64.7573C1153.9 57.8592 1151.07 48.611 1148.2 39.1861L1148.17 39.0887C1145.32 29.7777 1142.43 20.2997 1139.46 13.1473C1137.98 9.56665 1136.41 6.42125 1134.75 4.13583C1133.15 1.93991 1131.06 0 1128.47 0C1125.92 0 1123.84 1.82121 1122.23 3.93745C1120.55 6.12438 1118.99 9.13162 1117.5 12.5477C1114.53 19.3681 1111.63 28.4021 1108.79 37.2647L1108.76 37.3644C1105.88 46.3435 1103.05 55.1409 1100.2 61.7001C1098.76 64.9866 1097.38 67.5649 1096.07 69.2878C1094.7 71.0814 1093.74 71.4944 1093.21 71.4944C1091.69 71.4944 1090.42 72.2967 1089.42 73.2915C1088.43 74.285 1087.55 75.6333 1086.74 77.1576C1085.13 80.2126 1083.6 84.4526 1082.13 89.3549C1079.18 99.1663 1076.3 112.199 1073.45 125.097L1073.43 125.177C1070.56 138.17 1067.71 151.02 1064.83 160.626C1063.38 165.442 1061.96 169.301 1060.58 171.916C1059.89 173.226 1059.27 174.105 1058.75 174.63C1058.22 175.154 1057.97 175.161 1057.94 175.161C1055.35 175.161 1052.73 174.221 1049.98 172.644C1047.22 171.059 1044.48 168.927 1041.59 166.672L1041.52 166.621C1038.7 164.423 1035.74 162.109 1032.68 160.356C1029.59 158.582 1026.25 157.288 1022.68 157.288C1020.64 157.288 1018.24 155.61 1015.36 151.977C1012.57 148.452 1009.8 143.703 1006.9 138.743L1006.84 138.639C1004.02 133.801 1001.09 128.764 998.06 124.943C995.098 121.204 991.547 117.966 987.412 117.966C985.107 117.966 982.633 116.619 979.848 114.062C977.082 111.523 974.333 108.101 971.438 104.489L971.368 104.403C968.553 100.891 965.596 97.2013 962.546 94.401C959.491 91.5964 956.013 89.368 952.147 89.368C945.819 89.368 939.959 90.282 934.267 91.1697L934.204 91.1795C928.455 92.0761 922.874 92.9427 916.882 92.9427C916.099 92.9427 915.088 92.5175 913.802 91.2553C912.523 90.0013 911.176 88.1163 909.763 85.6844C906.935 80.8172 904.134 74.2739 901.249 67.5252L901.203 67.4178C898.372 60.7949 895.458 53.9789 892.461 48.8201C890.953 46.2251 889.353 43.9209 887.642 42.2425C885.94 40.5723 883.92 39.3219 881.618 39.3219C879.118 39.3219 877.046 41.0256 875.41 43.0593C873.73 45.1468 872.155 48.0153 870.664 51.2671C867.688 57.7554 864.789 66.3458 861.949 74.7601L861.915 74.8618C859.035 83.395 856.215 91.7414 853.362 97.9619C851.933 101.078 850.56 103.515 849.25 105.142C847.898 106.823 846.939 107.242 846.353 107.242C840.71 107.242 835.398 104.792 829.587 102.074L829.397 101.985C823.799 99.3653 817.713 96.5174 811.088 96.5174C808.786 96.5174 806.766 97.7679 805.063 99.438C803.353 101.116 801.752 103.421 800.245 106.016C797.248 111.174 794.334 117.99 791.503 124.613L791.457 124.721C788.572 131.469 785.771 138.013 782.943 142.88C781.53 145.312 780.183 147.197 778.904 148.451C777.618 149.713 776.607 150.138 775.824 150.138C775.821 150.138 775.811 150.138 775.788 150.132C775.764 150.125 775.722 150.11 775.659 150.076C775.529 150.005 775.331 149.86 775.071 149.582C774.538 149.011 773.909 148.058 773.212 146.645C771.824 143.83 770.401 139.685 768.952 134.53C766.061 124.249 763.216 110.499 760.344 96.6145L760.328 96.5375C757.475 82.7429 754.595 68.8209 751.65 58.344C750.178 53.1099 748.654 48.5972 747.053 45.3523C746.256 43.7352 745.379 42.3074 744.395 41.2546C743.416 40.2072 742.128 39.3219 740.559 39.3219C738.257 39.3219 736.237 40.5723 734.534 42.2425C732.823 43.9209 731.223 46.2251 729.715 48.8201C726.719 53.9788 723.805 60.7945 720.974 67.4171L720.928 67.5252C718.043 74.2739 715.241 80.8172 712.414 85.6844C711.001 88.1163 709.653 90.0013 708.375 91.2553C707.088 92.5175 706.078 92.9427 705.294 92.9427C701.621 92.9427 698.228 94.5372 695.139 96.6647C692.082 98.7695 689.115 101.546 686.299 104.18L686.229 104.246C683.335 106.954 680.595 109.511 677.837 111.41C675.086 113.304 672.527 114.391 670.029 114.391C664.55 114.391 659.345 111.212 653.489 107.558L653.232 107.398C647.694 103.942 641.524 100.092 634.765 100.092C628.006 100.092 621.836 103.942 616.297 107.398L616.041 107.558C610.184 111.212 604.979 114.391 599.5 114.391V119.23C606.259 119.23 612.429 115.38 617.968 111.924L618.224 111.764C624.081 108.11 629.286 104.931 634.765 104.931C640.244 104.931 645.449 108.11 651.305 111.764L651.562 111.924C657.101 115.38 663.271 119.23 670.029 119.23C673.703 119.23 677.095 117.635 680.185 115.508C683.242 113.403 686.209 110.626 689.025 107.991L689.095 107.926C691.989 105.218 694.729 102.661 697.487 100.762C700.238 98.868 702.796 97.7814 705.294 97.7814C707.596 97.7814 709.616 96.531 711.319 94.8608C713.03 93.1824 714.63 90.8783 716.138 88.2833C719.134 83.1246 722.048 76.309 724.879 69.6863L724.925 69.5782C727.81 62.8295 730.612 56.2861 733.439 51.419C734.852 48.987 736.2 47.1021 737.478 45.8481C738.765 44.5859 739.775 44.1606 740.559 44.1606C740.56 44.1606 740.563 44.1607 740.569 44.1615C740.575 44.1623 740.583 44.1639 740.595 44.167C740.618 44.1736 740.661 44.1886 740.723 44.2229C740.853 44.2941 741.052 44.439 741.311 44.717C741.845 45.2875 742.473 46.2405 743.17 47.6535C744.559 50.4689 745.982 54.6137 747.431 59.7687C750.321 70.0503 753.167 83.8001 756.039 97.6844L756.055 97.7628C758.908 111.557 761.788 125.478 764.733 135.955C766.204 141.189 767.729 145.702 769.329 148.947C770.127 150.564 771.003 151.991 771.987 153.044C772.966 154.092 774.254 154.977 775.824 154.977C778.126 154.977 780.146 153.727 781.848 152.056C783.559 150.378 785.159 148.074 786.667 145.479C789.664 140.32 792.578 133.504 795.409 126.881L795.455 126.774C798.34 120.025 801.141 113.482 803.969 108.615C805.381 106.183 806.729 104.298 808.008 103.044C809.294 101.781 810.305 101.356 811.088 101.356C816.731 101.356 822.043 103.805 827.854 106.524L828.044 106.613C833.642 109.232 839.728 112.08 846.353 112.08C848.853 112.08 850.924 110.377 852.561 108.343C854.241 106.255 855.815 103.387 857.307 100.135C860.282 93.6468 863.182 85.0564 866.021 76.6421L866.056 76.5405C868.935 68.0073 871.755 59.6609 874.608 53.4404C876.037 50.3247 877.411 47.8869 878.72 46.2601C880.073 44.5795 881.032 44.1606 881.618 44.1606C882.401 44.1606 883.412 44.5859 884.698 45.8481C885.977 47.1021 887.324 48.987 888.737 51.419C891.565 56.2861 894.366 62.8295 897.251 69.5782L897.297 69.6858C900.128 76.3086 903.042 83.1245 906.039 88.2833C907.547 90.8783 909.147 93.1824 910.858 94.8608C912.56 96.531 914.58 97.7814 916.882 97.7814C923.21 97.7814 929.071 96.8675 934.763 95.9797L934.826 95.9699C940.575 95.0734 946.155 94.2067 952.147 94.2067C954.452 94.2067 956.925 95.553 959.711 98.1105C962.477 100.649 965.226 104.071 968.121 107.683L968.19 107.769C971.005 111.281 973.963 114.971 977.013 117.771C980.068 120.576 983.546 122.804 987.412 122.804C989.448 122.804 991.848 124.482 994.727 128.115C997.519 131.64 1000.29 136.389 1003.18 141.349L1003.24 141.453C1006.07 146.291 1009 151.328 1012.03 155.149C1014.99 158.889 1018.54 162.126 1022.68 162.126C1025.27 162.126 1027.89 163.066 1030.63 164.643C1033.4 166.228 1036.14 168.36 1039.03 170.615L1039.1 170.667C1041.91 172.865 1044.88 175.179 1047.94 176.931C1051.03 178.706 1054.37 180 1057.94 180C1059.46 180 1060.73 179.198 1061.72 178.203C1062.72 177.209 1063.6 175.861 1064.4 174.337C1066.02 171.282 1067.55 167.042 1069.02 162.14C1071.97 152.328 1074.85 139.296 1077.7 126.398L1077.72 126.317C1080.59 113.325 1083.43 100.474 1086.32 90.8685C1087.77 86.052 1089.19 82.1931 1090.56 79.5788C1091.26 78.2684 1091.88 77.3895 1092.4 76.8644C1092.92 76.3408 1093.18 76.3331 1093.21 76.3331C1095.75 76.3331 1097.83 74.5119 1099.45 72.3957C1101.12 70.2087 1102.69 67.2015 1104.18 63.7854C1107.15 56.965 1110.05 47.931 1112.89 39.0684L1112.92 38.9687C1115.8 29.9896 1118.62 21.1923 1121.48 14.633C1122.91 11.3465 1124.29 8.76823 1125.61 7.04531C1126.98 5.2517 1127.93 4.83871 1128.47 4.83871C1128.96 4.83871 1129.91 5.24471 1131.3 7.15413C1132.62 8.97405 1134.01 11.6934 1135.44 15.1506C1138.31 22.0486 1141.13 31.2968 1144.01 40.7218L1144.04 40.8192C1146.88 50.1302 1149.78 59.6081 1152.74 66.7606C1154.23 70.3412 1155.79 73.4866 1157.46 75.772Z" fill="#0E72A5"/>
<defs>
<linearGradient id="paint0_linear_126:166" x1="299.75" y1="3" x2="299.75" y2="258.039" gradientUnits="userSpaceOnUse">
<stop stop-color="#0E72A5"/>
<stop offset="1" stop-color="#0E72A5" stop-opacity="0"/>
</linearGradient>
<linearGradient id="paint1_linear_126:166" x1="899.25" y1="3" x2="899.25" y2="258.039" gradientUnits="userSpaceOnUse">
<stop stop-color="#0E72A5"/>
<stop offset="1" stop-color="#0E72A5" stop-opacity="0"/>
</linearGradient>
</defs>
</svg>
