<svg width="41" height="37" viewBox="0 0 41 37" fill="none" xmlns="http://www.w3.org/2000/svg">
<path d="M37.7344 0.243787C37.2328 0.28028 36.7405 0.397956 36.2766 0.592224H36.2703C35.825 0.768786 33.7078 1.65941 30.4891 3.00941L18.9547 7.86722C10.6782 11.3516 2.54222 14.7828 2.54222 14.7828L2.6391 14.7453C2.6391 14.7453 2.07816 14.9297 1.49222 15.3313C1.13023 15.5616 0.818742 15.863 0.576595 16.2172C0.289095 16.6391 0.0578454 17.2844 0.143783 17.9516C0.284408 19.0797 1.01566 19.7563 1.54066 20.1297C2.07191 20.5078 2.57816 20.6844 2.57816 20.6844H2.59066L10.2203 23.2547C10.5625 24.3532 12.5453 30.8719 13.0219 32.3735C13.3032 33.2703 13.5766 33.8313 13.9188 34.2594C14.0844 34.4782 14.2782 34.661 14.511 34.8078C14.632 34.8783 14.7611 34.9339 14.8953 34.9735L14.8172 34.9547C14.8407 34.961 14.8594 34.9797 14.8766 34.986C14.9391 35.0032 14.9813 35.0094 15.061 35.0219C16.2688 35.3875 17.2391 34.6375 17.2391 34.6375L17.2938 34.5938L21.7985 30.4922L29.3485 36.2844L29.5203 36.3578C31.0938 37.0485 32.6875 36.6641 33.5297 35.986C34.3782 35.3032 34.7078 34.4297 34.7078 34.4297L34.7625 34.2891L40.5969 4.40004C40.7625 3.66254 40.8047 2.97191 40.6219 2.3016C40.4334 1.6232 39.9981 1.03974 39.4016 0.665661C38.9007 0.361154 38.3199 0.214175 37.7344 0.243787ZM37.5766 3.44691C37.5703 3.54535 37.5891 3.53441 37.5453 3.72347V3.74066L31.7657 33.3188C31.7407 33.361 31.6985 33.4532 31.5828 33.5453C31.461 33.6422 31.3641 33.7032 30.8563 33.5016L21.6219 26.4219L16.0438 31.5063L17.2157 24.0219L32.3032 9.95941C32.925 9.38129 32.7172 9.25941 32.7172 9.25941C32.761 8.55004 31.7782 9.0516 31.7782 9.0516L12.7532 20.8375L12.7469 20.8063L3.62816 17.736V17.7297L3.60472 17.725C3.62071 17.7197 3.63636 17.7135 3.6516 17.7063L3.7016 17.6813L3.75003 17.6641C3.75003 17.6641 11.8922 14.2328 20.1688 10.7485C24.3125 9.00316 28.4875 7.24535 31.6985 5.8891C34.9094 4.54066 37.2828 3.5516 37.4172 3.49847C37.5453 3.44847 37.4844 3.44847 37.5766 3.44847V3.44691Z" fill="#2F2483"/>
</svg>
