<svg width="800" height="505" viewBox="0 0 800 505" fill="none" xmlns="http://www.w3.org/2000/svg">
<path d="M590.1 414.522H252.146V250.825H590.1V414.522ZM260.067 406.601H580.859V258.746H260.067V406.601Z" fill="#FFE3A9"/>
<path d="M620.463 382.838H586.139V373.597H612.542V227.063H290.43V254.785H282.509V219.142H620.463V382.838Z" fill="#FFE3A9"/>
<path d="M650.827 351.155H616.504V341.914H642.906V195.379H320.794V223.102H312.873V186.138H650.827V351.155Z" fill="#FFE3A9"/>
<path d="M681.189 319.471H646.866V310.23H673.268V163.696H351.156V191.419H343.235V154.455H681.189V319.471Z" fill="#FFE3A9"/>
<path d="M421.123 372.276C405.281 372.276 392.08 355.114 392.08 333.992C392.08 312.87 405.281 295.708 421.123 295.708C436.965 295.708 450.166 312.87 450.166 333.992C450.166 355.114 436.965 372.276 421.123 372.276ZM421.123 304.949C409.242 304.949 400.001 318.151 400.001 333.992C400.001 349.834 409.242 363.035 421.123 363.035C433.004 363.035 442.245 349.834 442.245 333.992C442.245 318.151 433.004 304.949 421.123 304.949Z" fill="#FFE3A9"/>
<path d="M529.375 410.56H521.454C521.454 374.917 550.497 347.194 586.141 347.194V355.115C554.457 355.115 529.375 380.197 529.375 410.56Z" fill="#FFE3A9"/>
<path d="M320.793 410.56H312.872C312.872 380.197 287.79 355.115 256.106 355.115V347.194C291.75 347.194 320.793 374.917 320.793 410.56Z" fill="#FFE3A9"/>
<path d="M586.141 318.151C550.497 318.151 521.454 289.108 521.454 254.785H529.375C529.375 285.148 554.457 310.23 586.141 310.23V318.151Z" fill="#FFE3A9"/>
<path d="M256.106 318.151V310.23C287.79 310.23 312.872 285.148 312.872 254.785H320.793C320.793 289.108 291.75 318.151 256.106 318.151Z" fill="#FFE3A9"/>
<path d="M353.796 328.712H319.473V336.633H353.796V328.712Z" fill="#FFE3A9"/>
<path d="M522.773 328.712H488.449V336.633H522.773V328.712Z" fill="#FFE3A9"/>
<path d="M166.337 322.111C132.014 322.111 104.291 307.59 104.291 289.108C104.291 270.626 130.694 256.104 166.337 256.104C200.661 256.104 228.383 270.626 228.383 289.108C228.383 307.59 201.981 322.111 166.337 322.111ZM166.337 264.025C134.654 264.025 113.532 277.227 113.532 289.108C113.532 300.989 134.654 314.19 166.337 314.19C198.02 314.19 219.143 300.989 219.143 289.108C219.143 277.227 198.02 264.025 166.337 264.025Z" fill="#FFE3A9"/>
<path d="M166.337 351.154C132.014 351.154 104.291 336.633 104.291 318.151C104.291 311.55 106.931 306.27 113.532 300.989L118.813 307.59C116.172 310.23 112.212 314.191 112.212 319.471C112.212 331.352 133.334 344.554 165.017 344.554C196.7 344.554 217.822 331.352 217.822 319.471C217.822 314.191 213.862 310.23 211.222 307.59L216.502 300.989C223.103 306.27 225.743 312.87 225.743 318.151C228.383 336.633 201.981 351.154 166.337 351.154Z" fill="#FFE3A9"/>
<path d="M166.337 380.197C132.014 380.197 104.291 365.675 104.291 347.193C104.291 340.593 106.931 335.312 113.532 330.031L118.813 336.632C116.172 339.272 112.212 343.233 112.212 348.513C112.212 360.395 133.334 373.596 165.017 373.596C196.7 373.596 217.822 360.395 217.822 348.513C217.822 343.233 213.862 339.272 211.222 336.632L216.502 330.031C223.103 335.312 225.743 341.913 225.743 347.193C228.383 365.675 201.981 380.197 166.337 380.197Z" fill="#FFE3A9"/>
<path d="M166.337 409.24C132.014 409.24 104.291 394.719 104.291 376.237C104.291 369.636 106.931 364.356 113.532 359.075L118.813 365.676C116.172 368.316 112.212 372.277 112.212 377.557C112.212 389.438 133.334 402.64 165.017 402.64C196.7 402.64 217.822 389.438 217.822 377.557C217.822 372.277 213.862 368.316 211.222 365.676L216.502 359.075C223.103 364.356 225.743 370.956 225.743 376.237C228.383 394.719 201.981 409.24 166.337 409.24Z" fill="#FFE3A9"/>
<path d="M175.578 285.147H161.057V293.068H175.578V285.147Z" fill="#FFE3A9"/>
<path d="M634.984 0H627.063V132.013H634.984V0Z" fill="#FFE3A9"/>
<path d="M561.056 558.416C553.135 554.456 546.534 550.495 539.933 545.215L545.214 537.294C551.815 541.254 558.415 546.535 566.336 550.495L561.056 558.416ZM520.131 529.373C513.531 524.093 506.93 518.812 501.65 512.211L508.25 505.611C513.531 510.891 520.131 517.492 526.732 521.452L520.131 529.373ZM483.168 493.73C477.887 487.129 472.607 480.528 467.326 473.928L473.927 468.647C479.207 475.248 483.168 481.848 488.448 488.449L483.168 493.73Z" fill="#FFE3A9"/>
<path d="M454.125 452.805C451.485 448.845 450.165 444.884 447.524 440.924L455.445 436.964C456.765 440.924 459.406 444.884 462.046 447.525L454.125 452.805Z" fill="#FFE3A9"/>
<path d="M483.169 143.894L476.568 138.614C479.209 134.653 481.849 132.013 484.489 128.052L491.09 133.333C488.45 137.293 485.809 139.934 483.169 143.894Z" fill="#FFE3A9"/>
<path d="M508.251 116.172L501.65 109.571C508.251 104.291 513.532 97.6899 520.132 92.4094L525.413 99.01C520.132 105.611 513.532 110.891 508.251 116.172ZM545.215 85.8087L539.934 79.208C546.535 73.9275 554.456 69.9671 561.056 66.0067L565.017 73.9275C558.416 76.5678 551.815 80.5282 545.215 85.8087Z" fill="#FFE3A9"/>
<path d="M587.46 62.0458L584.819 54.125C588.78 52.8049 592.74 50.1646 596.701 48.8445L599.341 56.7653C595.38 59.4055 591.42 60.7257 587.46 62.0458Z" fill="#FFE3A9"/>
<path d="M786.799 267.988H778.878V300.991H786.799V267.988Z" fill="#FFE3A9"/>
<path d="M800 278.549H766.997V286.47H800V278.549Z" fill="#FFE3A9"/>
<path d="M228.383 161.056H220.462V194.059H228.383V161.056Z" fill="#FFE3A9"/>
<path d="M240.264 171.617H207.261V179.538H240.264V171.617Z" fill="#FFE3A9"/>
<path d="M21.1219 312.871H13.2012V345.874H21.1219V312.871Z" fill="#FFE3A9"/>
<path d="M33.0033 323.433H0V331.354H33.0033V323.433Z" fill="#FFE3A9"/>
<path d="M711.674 532.908C695.832 532.908 681.311 519.706 681.311 502.544C681.311 486.703 694.512 472.181 711.674 472.181C727.515 472.181 742.037 485.383 742.037 502.544C740.716 519.706 727.515 532.908 711.674 532.908ZM711.674 481.422C699.792 481.422 690.551 490.663 690.551 502.544C690.551 514.426 699.792 523.667 711.674 523.667C723.555 523.667 732.796 514.426 732.796 502.544C732.796 491.983 723.555 481.422 711.674 481.422Z" fill="#FFE3A9"/>
<path d="M714.313 461.62H706.393V477.461H714.313V461.62Z" fill="#FFE3A9"/>
<path d="M685.389 471.362L679.788 476.963L690.99 488.164L696.591 482.564L685.389 471.362Z" fill="#FFE3A9"/>
<path d="M752.599 498.584H736.758V506.505H752.599V498.584Z" fill="#FFE3A9"/>
<path d="M685.271 498.584H669.43V506.505H685.271V498.584Z" fill="#FFE3A9"/>
<path d="M737.462 470.143L726.261 481.344L731.862 486.945L743.063 475.744L737.462 470.143Z" fill="#FFE3A9"/>
<path d="M649.628 489.343C633.786 489.343 619.265 476.141 619.265 458.98C619.265 443.138 632.466 428.617 649.628 428.617C665.469 428.617 679.991 441.818 679.991 458.98C678.671 476.141 665.469 489.343 649.628 489.343ZM649.628 437.858C637.746 437.858 628.506 447.099 628.506 458.98C628.506 470.861 637.746 480.102 649.628 480.102C661.509 480.102 670.75 470.861 670.75 458.98C670.75 447.099 660.189 437.858 649.628 437.858Z" fill="#FFE3A9"/>
<path d="M652.268 485.381H644.347V501.223H652.268V485.381Z" fill="#FFE3A9"/>
<path d="M652.268 418.055H644.347V433.897H652.268V418.055Z" fill="#FFE3A9"/>
<path d="M669.333 474.714L663.732 480.315L674.934 491.517L680.535 485.916L669.333 474.714Z" fill="#FFE3A9"/>
<path d="M621.648 427.656L616.048 433.258L627.251 444.458L632.851 438.856L621.648 427.656Z" fill="#FFE3A9"/>
<path d="M690.553 455.019H674.712V462.94H690.553V455.019Z" fill="#FFE3A9"/>
<path d="M623.225 455.019H607.384V462.94H623.225V455.019Z" fill="#FFE3A9"/>
<path d="M674.643 427.31L663.441 438.511L669.042 444.112L680.244 432.911L674.643 427.31Z" fill="#FFE3A9"/>
<path d="M628.461 474.067L617.26 485.268L622.861 490.869L634.062 479.667L628.461 474.067Z" fill="#FFE3A9"/>
<path d="M698.349 118.811C682.508 118.811 667.986 105.609 667.986 88.4475C667.986 72.6059 681.188 58.0845 698.349 58.0845C714.191 58.0845 728.712 71.2858 728.712 88.4475C727.392 105.609 714.191 118.811 698.349 118.811ZM698.349 68.6455C686.468 68.6455 677.227 77.8865 677.227 89.7677C677.227 101.649 686.468 110.89 698.349 110.89C710.231 110.89 719.471 101.649 719.471 89.7677C719.471 77.8865 710.231 68.6455 698.349 68.6455Z" fill="#FFE3A9"/>
<path d="M700.99 114.851H693.069V130.692H700.99V114.851Z" fill="#FFE3A9"/>
<path d="M700.99 48.8444H693.069V64.6859H700.99V48.8444Z" fill="#FFE3A9"/>
<path d="M718.491 105.463L712.891 111.064L724.092 122.266L729.693 116.665L718.491 105.463Z" fill="#FFE3A9"/>
<path d="M671.731 57.4184L666.13 63.0192L677.331 74.2208L682.932 68.62L671.731 57.4184Z" fill="#FFE3A9"/>
<path d="M739.275 85.8088H723.434V93.7296H739.275V85.8088Z" fill="#FFE3A9"/>
<path d="M673.267 85.8088H657.426V93.7296H673.267V85.8088Z" fill="#FFE3A9"/>
<path d="M724.833 57.1063L713.63 68.3079L719.231 73.9095L730.434 62.7079L724.833 57.1063Z" fill="#FFE3A9"/>
<path d="M676.784 103.871L665.581 115.073L671.182 120.675L682.385 109.473L676.784 103.871Z" fill="#FFE3A9"/>
</svg>
